<svg xmlns="http://www.w3.org/2000/svg" viewBox="0 0 32 32" fill="none">
  <rect width="32" height="32" rx="8" fill="#1E1A24"/>
  <path d="M16 26c-.3 0-.6-.1-.8-.3l-6.9-6.2C5.4 16.8 4 14.8 4 12.6 4 9.5 6.5 7 9.6 7c1.4 0 2.8.5 3.9 1.5l2.5 2.3 2.5-2.3C19.6 7.5 21 7 22.4 7 25.5 7 28 9.5 28 12.6c0 2.2-1.4 4.2-4.3 6.9l-6.9 6.2a1 1 0 0 1-.8.3z" fill="#D4A853"/>
  <path d="M16 23l5-4.5c2.2-2 3.2-3.5 3.2-5.5 0-2-1.5-3.5-3.5-3.5-1 0-2 .4-2.8 1.2l-1.9 1.7-1.9-1.7A3.8 3.8 0 0 0 11.3 9.5C9.3 9.5 7.8 11 7.8 13c0 2 1 3.5 3.2 5.5L16 23z" fill="#2A2432" opacity="0.3"/>
</svg>
